<svg width="238" height="276" viewBox="0 0 238 276" fill="none" xmlns="http://www.w3.org/2000/svg">
<circle cx="119" cy="157" r="93" stroke="#D22856" stroke-width="16"/>
<path d="M211.314 81.6277L215.587 77.3408C221.752 71.1663 222.878 62.1925 218.086 57.4017C213.294 52.6109 204.334 53.7227 198.176 59.8971L193.871 64.208C176.746 50.2779 156.074 41.4187 134.187 38.6304V30.9603H140.305C149.019 30.9603 156.151 23.994 156.151 15.4842C156.151 6.97427 149.019 0 140.305 0H97.7208C89.0075 0 81.8754 6.96627 81.8754 15.4842C81.8754 24.002 89.0075 30.9603 97.7208 30.9603H103.839V38.6304C77.6967 41.9933 53.4093 53.9522 34.7872 72.6308C16.1652 91.3093 4.26218 115.651 0.945904 141.835C-2.37038 168.02 3.08771 194.566 16.4638 217.309C29.8399 240.052 50.377 257.704 74.8528 267.496C99.3286 277.288 126.358 278.665 151.7 271.412C177.042 264.16 199.263 248.687 214.875 227.421C230.488 206.156 238.609 180.302 237.964 153.915C237.32 127.529 227.946 102.103 211.314 81.6277V81.6277ZM119.013 244.947C101.61 244.947 84.5984 239.779 70.1286 230.097C55.6589 220.414 44.3813 206.652 37.7219 190.551C31.0625 174.45 29.3205 156.733 32.7162 139.64C36.1119 122.547 44.4927 106.847 56.7989 94.5241C69.105 82.2015 84.7837 73.81 101.852 70.411C118.921 67.012 136.613 68.7581 152.69 75.4285C168.768 82.0989 182.509 93.3939 192.176 107.885C201.844 122.377 207.003 139.413 207.001 156.841C206.999 180.209 197.728 202.619 181.227 219.142C164.726 235.665 142.348 244.947 119.013 244.947V244.947Z" fill="#DEDEDE"/>
<path d="M115.906 191H68V180.922L85.2031 163.531C90.2969 158.312 93.625 154.703 95.1875 152.703C96.75 150.672 97.875 148.797 98.5625 147.078C99.25 145.359 99.5938 143.578 99.5938 141.734C99.5938 138.984 98.8281 136.938 97.2969 135.594C95.7969 134.25 93.7812 133.578 91.25 133.578C88.5938 133.578 86.0156 134.188 83.5156 135.406C81.0156 136.625 78.4062 138.359 75.6875 140.609L67.8125 131.281C71.1875 128.406 73.9844 126.375 76.2031 125.188C78.4219 124 80.8438 123.094 83.4688 122.469C86.0938 121.812 89.0312 121.484 92.2812 121.484C96.5625 121.484 100.344 122.266 103.625 123.828C106.906 125.391 109.453 127.578 111.266 130.391C113.078 133.203 113.984 136.422 113.984 140.047C113.984 143.203 113.422 146.172 112.297 148.953C111.203 151.703 109.484 154.531 107.141 157.438C104.828 160.344 100.734 164.484 94.8594 169.859L86.0469 178.156V178.812H115.906V191ZM172.297 176.797H164.047V191H149.891V176.797H120.641V166.719L150.688 122.469H164.047V165.547H172.297V176.797ZM149.891 165.547V153.922C149.891 151.984 149.969 149.172 150.125 145.484C150.281 141.797 150.406 139.656 150.5 139.062H150.125C148.969 141.625 147.578 144.125 145.953 146.562L133.391 165.547H149.891Z" fill="#D22856"/>
<path d="M115.906 191V192H116.906V191H115.906ZM68 191H67V192H68V191ZM68 180.922L67.2891 180.219L67 180.511V180.922H68ZM85.2031 163.531L85.9141 164.235L85.9188 164.23L85.2031 163.531ZM95.1875 152.703L95.9755 153.319L95.9801 153.313L95.1875 152.703ZM97.2969 135.594L96.6296 136.339L96.6373 136.345L97.2969 135.594ZM75.6875 140.609L74.9234 141.254L75.5622 142.011L76.3251 141.38L75.6875 140.609ZM67.8125 131.281L67.164 130.52L66.4062 131.166L67.0484 131.926L67.8125 131.281ZM83.4688 122.469L83.7004 123.442L83.7113 123.439L83.4688 122.469ZM112.297 148.953L111.37 148.578L111.368 148.584L112.297 148.953ZM107.141 157.438L106.362 156.81L106.358 156.815L107.141 157.438ZM94.8594 169.859L94.1844 169.122L94.1791 169.126L94.1739 169.131L94.8594 169.859ZM86.0469 178.156L85.3614 177.428L85.0469 177.724V178.156H86.0469ZM86.0469 178.812H85.0469V179.812H86.0469V178.812ZM115.906 178.812H116.906V177.812H115.906V178.812ZM115.906 190H68V192H115.906V190ZM69 191V180.922H67V191H69ZM68.7109 181.625L85.9141 164.235L84.4922 162.828L67.2891 180.219L68.7109 181.625ZM85.9188 164.23C91.0073 159.016 94.3738 155.369 95.9755 153.319L94.3995 152.087C92.8762 154.037 89.5865 157.609 84.4875 162.833L85.9188 164.23ZM95.9801 153.313C97.5788 151.234 98.7591 149.279 99.491 147.45L97.634 146.707C96.9909 148.315 95.9212 150.109 94.3949 152.093L95.9801 153.313ZM99.491 147.45C100.226 145.613 100.594 143.706 100.594 141.734H98.5938C98.5938 143.45 98.2745 145.106 97.634 146.707L99.491 147.45ZM100.594 141.734C100.594 138.802 99.7726 136.436 97.9565 134.842L96.6373 136.345C97.8837 137.439 98.5938 139.166 98.5938 141.734H100.594ZM97.9641 134.849C96.2371 133.302 93.9619 132.578 91.25 132.578V134.578C93.6006 134.578 95.3566 135.198 96.6296 136.339L97.9641 134.849ZM91.25 132.578C88.4347 132.578 85.7073 133.225 83.0774 134.507L83.9538 136.305C86.3239 135.15 88.7528 134.578 91.25 134.578V132.578ZM83.0774 134.507C80.49 135.769 77.8143 137.551 75.0499 139.839L76.3251 141.38C78.9982 139.168 81.5412 137.481 83.9538 136.305L83.0774 134.507ZM76.4516 139.964L68.5766 130.636L67.0484 131.926L74.9234 141.254L76.4516 139.964ZM68.461 132.042C71.816 129.185 74.5495 127.207 76.675 126.069L75.7312 124.306C73.4193 125.543 70.559 127.628 67.164 130.52L68.461 132.042ZM76.675 126.069C78.8127 124.925 81.153 124.048 83.7004 123.442L83.2371 121.496C80.5345 122.139 78.0311 123.075 75.7312 124.306L76.675 126.069ZM83.7113 123.439C86.243 122.806 89.0972 122.484 92.2812 122.484V120.484C88.9653 120.484 85.9445 120.819 83.2262 121.499L83.7113 123.439ZM92.2812 122.484C96.44 122.484 100.07 123.243 103.195 124.731L104.055 122.925C100.618 121.288 96.685 120.484 92.2812 120.484V122.484ZM103.195 124.731C106.324 126.221 108.722 128.289 110.425 130.932L112.106 129.849C110.184 126.867 107.489 124.561 104.055 122.925L103.195 124.731ZM110.425 130.932C112.125 133.57 112.984 136.597 112.984 140.047H114.984C114.984 136.246 114.031 132.836 112.106 129.849L110.425 130.932ZM112.984 140.047C112.984 143.081 112.444 145.922 111.37 148.578L113.224 149.328C114.4 146.422 114.984 143.325 114.984 140.047H112.984ZM111.368 148.584C110.319 151.22 108.659 153.962 106.362 156.81L107.919 158.065C110.31 155.1 112.087 152.186 113.226 149.323L111.368 148.584ZM106.358 156.815C104.098 159.655 100.054 163.751 94.1844 169.122L95.5344 170.597C101.415 165.217 105.558 161.032 107.923 158.06L106.358 156.815ZM94.1739 169.131L85.3614 177.428L86.7324 178.884L95.5449 170.587L94.1739 169.131ZM85.0469 178.156V178.812H87.0469V178.156H85.0469ZM86.0469 179.812H115.906V177.812H86.0469V179.812ZM114.906 178.812V191H116.906V178.812H114.906ZM172.297 176.797V177.797H173.297V176.797H172.297ZM164.047 176.797V175.797H163.047V176.797H164.047ZM164.047 191V192H165.047V191H164.047ZM149.891 191H148.891V192H149.891V191ZM149.891 176.797H150.891V175.797H149.891V176.797ZM120.641 176.797H119.641V177.797H120.641V176.797ZM120.641 166.719L119.813 166.157L119.641 166.411V166.719H120.641ZM150.688 122.469V121.469H150.158L149.86 121.907L150.688 122.469ZM164.047 122.469H165.047V121.469H164.047V122.469ZM164.047 165.547H163.047V166.547H164.047V165.547ZM172.297 165.547H173.297V164.547H172.297V165.547ZM149.891 165.547V166.547H150.891V165.547H149.891ZM150.5 139.062L151.488 139.218L151.67 138.062H150.5V139.062ZM150.125 139.062V138.062H149.479L149.213 138.651L150.125 139.062ZM145.953 146.562L145.121 146.008L145.119 146.011L145.953 146.562ZM133.391 165.547L132.557 164.995L131.53 166.547H133.391V165.547ZM172.297 175.797H164.047V177.797H172.297V175.797ZM163.047 176.797V191H165.047V176.797H163.047ZM164.047 190H149.891V192H164.047V190ZM150.891 191V176.797H148.891V191H150.891ZM149.891 175.797H120.641V177.797H149.891V175.797ZM121.641 176.797V166.719H119.641V176.797H121.641ZM121.468 167.281L151.515 123.031L149.86 121.907L119.813 166.157L121.468 167.281ZM150.688 123.469H164.047V121.469H150.688V123.469ZM163.047 122.469V165.547H165.047V122.469H163.047ZM164.047 166.547H172.297V164.547H164.047V166.547ZM171.297 165.547V176.797H173.297V165.547H171.297ZM150.891 165.547V153.922H148.891V165.547H150.891ZM150.891 153.922C150.891 152.006 150.968 149.21 151.124 145.527L149.126 145.442C148.969 149.133 148.891 151.963 148.891 153.922H150.891ZM151.124 145.527C151.282 141.803 151.405 139.74 151.488 139.218L149.512 138.907C149.407 139.573 149.281 141.791 149.126 145.442L151.124 145.527ZM150.5 138.062H150.125V140.062H150.5V138.062ZM149.213 138.651C148.081 141.162 146.717 143.614 145.121 146.008L146.785 147.117C148.439 144.636 149.857 142.088 151.037 139.474L149.213 138.651ZM145.119 146.011L132.557 164.995L134.225 166.099L146.787 147.114L145.119 146.011ZM133.391 166.547H149.891V164.547H133.391V166.547Z" fill="black"/>
</svg>
